<svg height="512" viewBox="0 0 128 128" width="512" xmlns="http://www.w3.org/2000/svg"><g><path d="m6.306 27.554h67.68v53.313h-67.68z" fill="#fc883a"/><path d="m121.694 80.867v-21.023l-12.986-2.633-12.828-21.795h-21.894v45.451z" fill="#3ea2e5"/><path d="m82.064 27.554h6.099v7.862h-6.099z" fill="#fc883a"/><path d="m113.38 65.979h8.314v6.741h-8.314z" fill="#dfeef4"/><path d="m100.266 42.868h-18.202v14.343h26.644z" fill="#dfeef4"/><path d="m6.306 80.867h115.387v12.193h-115.387z" fill="#3ea2e5"/><circle cx="29.86" cy="86.936" fill="#6d7a84" r="13.51"/><circle cx="98.14" cy="86.936" fill="#6d7a84" r="13.51"/><circle cx="29.86" cy="86.936" fill="#dfeef4" r="5.028"/><circle cx="98.14" cy="86.936" fill="#dfeef4" r="5.028"/><path d="m86.069 65.75h-4.006a1.75 1.75 0 1 1 0-3.5h4.006a1.75 1.75 0 1 1 0 3.5z" fill="#1892d6"/><g fill="#dfeef4"><path d="m20.139 51.443v1.574h5.31v2.809h-5.31v3.961h-3.149v-11.153h8.978v2.809z"/><path d="m35.663 59.787-2.354-3.36h-.974v3.36h-3.149v-11.153h5.341c2.5 0 4.27 1.607 4.27 3.9a3.708 3.708 0 0 1 -2.208 3.475l2.662 3.782zm-3.328-6.218h1.932c.747 0 1.283-.438 1.283-1.039s-.536-1.039-1.283-1.039h-1.932z"/><path d="m45.279 51.443v1.25h5.308v2.807h-5.308v1.478h5.828v2.808h-8.978v-11.152h8.978v2.809z"/><path d="m57.474 51.443v1.25h5.31v2.807h-5.31v1.478h5.826v2.808h-8.975v-11.152h8.975v2.809z"/></g></g></svg>