<svg id="Layer_1" height="512" viewBox="0 0 512 512" width="512" xmlns="http://www.w3.org/2000/svg" data-name="Layer 1"><path d="m476.61 81.81a110.1 110.1 0 1 1 -199.37-4.26l53.23 53.23a68.715 68.715 0 0 0 97.17 0z" fill="#b0b5ca"/><path d="m431.46 42.58-78.15 78.15-51.9-51.9s39.73-61.6 130.05-26.25z" fill="#ccd3df"/><path d="m334.9 228.52v.01l-240.01 240.01a40.351 40.351 0 1 1 -57.07-57.06l238.41-238.41a110.467 110.467 0 0 0 58.67 55.45zm-253.87 224.71a19.725 19.725 0 1 0 -27.9 0 19.724 19.724 0 0 0 27.9 0z" fill="#4689d3"/><path d="m360.47 150.78a68.715 68.715 0 0 0 97.17 0l28.278-28.28a110.054 110.054 0 0 0 -9.308-40.69l-48.97 48.97a68.708 68.708 0 0 1 -70.7 16.47z" fill="#6d7486"/><path d="m56.23 455.764a19.717 19.717 0 0 1 20.8-33.49l219.608-219.612a109.953 109.953 0 0 1 -20.408-29.592l-238.41 238.41a40.339 40.339 0 0 0 23.5 68.556 40.164 40.164 0 0 1 -5.092-24.272z" fill="#5fa8ed"/><path d="m328.1 224.19a109.925 109.925 0 0 1 -23.966-119.746l-26.894-26.894a109.826 109.826 0 0 0 19.4 125.112c.489.508.961 1.027 1.462 1.528a109.709 109.709 0 0 0 32.659 22.562c-.898-.838-1.787-1.688-2.661-2.562z" fill="#6d7486"/></svg>